<?xml version="1.0" encoding="UTF-8"?>
<!DOCTYPE svg PUBLIC "-//W3C//DTD SVG 1.1//EN" "http://www.w3.org/Graphics/SVG/1.1/DTD/svg11.dtd">
<svg version="1.1" xmlns="http://www.w3.org/2000/svg" xmlns:xlink="http://www.w3.org/1999/xlink" x="0" y="0" width="157.071" height="72.962" viewBox="0, 0, 157.071, 72.962">
  <g id="Layer_4">
    <path d="M85.882,14.595 L86.23,14.542 L86.928,14.375 L87.625,14.135 L88.32,13.833 L89.01,13.475 L89.694,13.075 L90.704,12.406 L92.025,11.432 L93.313,10.416 L94.56,9.418 L95.468,8.721 L96.055,8.296 L96.629,7.906 L97.189,7.563 L97.733,7.273 L98.256,7.043 L98.758,6.879 L99.232,6.783 L99.679,6.758 L100.099,6.805 L100.501,6.925 L100.893,7.124 L101.288,7.412 L101.691,7.805 L102.102,8.317 L102.522,8.958 L102.834,9.525 L103.042,9.947 L103.253,10.413 L103.463,10.917 L103.565,11.179 L103.559,11.163 L103.651,11.414 L103.81,11.915 L103.951,12.449 L104.08,13.023 L104.195,13.635 L104.295,14.281 L104.38,14.957 L104.451,15.662 L104.531,16.768 L104.589,18.31 L104.599,19.905 L104.561,21.536 L104.478,23.18 L104.355,24.814 L104.195,26.417 L104.001,27.966 L103.777,29.439 L103.526,30.812 L103.325,31.758 L103.185,32.343 L103.04,32.894 L102.891,33.403 L102.818,33.633 L102.822,33.621 L102.623,34.225 L102.218,35.402 L101.799,36.548 L101.365,37.668 L100.917,38.761 L100.455,39.828 L99.979,40.868 L99.489,41.88 L98.987,42.864 L98.472,43.819 L97.946,44.747 L97.408,45.646 L96.86,46.516 L96.302,47.357 L95.733,48.168 L95.154,48.948 L94.565,49.698 L93.969,50.418 L93.364,51.107 L92.75,51.765 L92.129,52.391 L91.5,52.984 L90.864,53.545 L90.222,54.075 L89.574,54.571 L88.921,55.035 L88.261,55.465 L87.597,55.861 L86.928,56.223 L86.255,56.551 L85.579,56.846 L84.898,57.106 L84.567,57.22 L84.593,57.212 L84.127,57.356 L83.255,57.567 L82.416,57.697 L81.592,57.752 L80.781,57.738 L79.984,57.655 L79.199,57.504 L78.424,57.289 L77.661,57.009 L76.908,56.666 L76.166,56.262 L75.435,55.799 L74.716,55.276 L74.01,54.697 L73.318,54.063 L72.64,53.376 L71.978,52.637 L71.332,51.85 L70.704,51.016 L70.093,50.138 L69.501,49.218 L68.929,48.258 L68.378,47.261 L67.847,46.228 L67.338,45.163 L66.851,44.068 L66.387,42.944 L65.947,41.796 L65.53,40.624 L65.137,39.431 L64.77,38.219 L64.429,36.991 L63.965,35.122 L63.442,32.595 L63.029,30.049 L62.731,27.498 L62.586,25.595 L62.528,24.336 L62.5,23.084 L62.503,21.843 L62.538,20.617 L62.605,19.407 L62.705,18.216 L62.839,17.046 L63.005,15.899 L63.206,14.778 L63.441,13.685 L63.71,12.621 L64.014,11.591 L64.355,10.595 L64.731,9.637 L65.144,8.718 L65.594,7.841 L66.08,7.008 L66.604,6.221 L67.166,5.482 L67.766,4.793 L68.405,4.158 L69.084,3.578 L69.803,3.055 L70.175,2.817 L70.172,2.819 L70.359,2.708 L70.72,2.512 L71.069,2.349 L71.406,2.216 L71.732,2.113 L72.047,2.038 L72.503,1.977 L73.077,1.987 L73.614,2.092 L74.12,2.287 L74.6,2.564 L75.055,2.917 L75.49,3.339 L75.905,3.824 L76.303,4.364 L76.684,4.953 L77.053,5.581 L77.588,6.582 L78.28,7.987 L78.966,9.415 L79.668,10.808 L80.218,11.794 L80.601,12.408 L80.999,12.981 L81.415,13.503 L81.853,13.968 L82.315,14.368 L82.803,14.696 L83.321,14.943 L83.871,15.103 L84.456,15.168 L84.761,15.163 L84.761,15.163 C84.762,15.163 84.763,15.162 84.763,15.161 C84.763,15.161 84.762,15.16 84.761,15.16 C84.761,15.16 84.761,15.16 84.761,15.16 L84.456,15.163 L83.874,15.094 L83.327,14.931 L82.813,14.681 L82.329,14.352 L81.873,13.95 L81.44,13.484 L81.029,12.96 L80.637,12.386 L80.262,11.769 L79.724,10.781 L79.037,9.382 L78.365,7.945 L77.686,6.531 L77.159,5.52 L76.794,4.883 L76.413,4.284 L76.016,3.73 L75.598,3.229 L75.156,2.789 L74.685,2.417 L74.184,2.121 L73.65,1.911 L73.081,1.794 L72.478,1.778 L72.001,1.837 L71.67,1.911 L71.328,2.015 L70.977,2.148 L70.614,2.313 L70.242,2.508 L70.053,2.616 L70.053,2.616 C70.052,2.617 70.051,2.618 70.05,2.618 L70.05,2.618 L69.663,2.859 L68.921,3.385 L68.22,3.968 L67.557,4.608 L66.933,5.302 L66.348,6.047 L65.801,6.842 L65.292,7.683 L64.82,8.569 L64.385,9.498 L63.987,10.466 L63.624,11.472 L63.296,12.512 L63.003,13.586 L62.744,14.691 L62.52,15.824 L62.33,16.983 L62.173,18.166 L62.048,19.371 L61.955,20.594 L61.895,21.835 L61.865,23.091 L61.867,24.36 L61.901,25.64 L62.007,27.574 L62.25,30.166 L62.61,32.758 L63.082,35.33 L63.509,37.235 L63.827,38.493 L64.171,39.735 L64.541,40.961 L64.938,42.168 L65.36,43.354 L65.807,44.517 L66.279,45.653 L66.777,46.762 L67.298,47.84 L67.844,48.886 L68.414,49.898 L69.008,50.873 L69.625,51.809 L70.266,52.703 L70.931,53.554 L71.62,54.358 L72.332,55.114 L73.068,55.819 L73.828,56.471 L74.612,57.066 L75.419,57.602 L76.25,58.076 L77.105,58.483 L77.982,58.822 L78.881,59.089 L79.8,59.281 L80.738,59.394 L81.692,59.427 L82.662,59.375 L83.644,59.238 L84.622,59.019 L85.091,58.885 L85.091,58.885 C85.099,58.882 85.108,58.879 85.117,58.876 L85.117,58.876 L85.509,58.75 L86.269,58.475 L87.024,58.163 L87.772,57.813 L88.514,57.427 L89.248,57.005 L89.974,56.548 L90.692,56.056 L91.403,55.529 L92.104,54.969 L92.795,54.374 L93.477,53.746 L94.149,53.085 L94.811,52.393 L95.462,51.669 L96.101,50.912 L96.728,50.124 L97.344,49.305 L97.948,48.457 L98.539,47.578 L99.116,46.67 L99.68,45.731 L100.229,44.764 L100.764,43.769 L101.284,42.745 L101.789,41.694 L102.28,40.616 L102.755,39.51 L103.214,38.379 L103.656,37.221 L104.081,36.037 L104.488,34.832 L104.683,34.227 L104.683,34.227 C104.684,34.223 104.685,34.219 104.687,34.215 L104.687,34.215 L104.77,33.942 L104.928,33.383 L105.079,32.788 L105.225,32.154 L105.43,31.149 L105.677,29.717 L105.892,28.191 L106.073,26.592 L106.215,24.94 L106.317,23.256 L106.372,21.562 L106.381,19.877 L106.34,18.222 L106.241,16.623 L106.13,15.472 L106.037,14.727 L105.928,14.006 L105.802,13.312 L105.66,12.645 L105.499,12.009 L105.317,11.406 L105.118,10.848 L105.018,10.6 L105.018,10.6 C105.016,10.595 105.014,10.59 105.012,10.584 L105.012,10.584 L104.888,10.295 L104.642,9.755 L104.393,9.249 L104.136,8.772 L103.744,8.119 L103.208,7.37 L102.648,6.746 L102.063,6.245 L101.453,5.866 L100.824,5.61 L100.188,5.475 L99.556,5.452 L98.934,5.527 L98.324,5.689 L97.726,5.925 L97.135,6.224 L96.549,6.578 L95.964,6.978 L95.38,7.419 L94.794,7.897 L93.915,8.661 L92.733,9.733 L91.538,10.825 L90.323,11.883 L89.397,12.622 L88.776,13.078 L88.148,13.494 L87.513,13.87 L86.869,14.198 L86.214,14.475 L85.881,14.593 C85.881,14.593 85.88,14.594 85.88,14.594 C85.881,14.595 85.881,14.595 85.882,14.595 L85.882,14.595" fill="#6FBDFF"/>
    <path d="M85.456,15.613 C92.455,14.02 98.63,0.347 103.342,11.74 C105.394,16.7 104.885,24.082 104.058,29.286 C102.538,38.843 96.15,50.726 89.605,55.153 C65.405,71.523 54.426,13.555 70.189,4.031 C77.937,-0.65 77.999,16.24 84.375,15.857" fill="#FF76A2"/>
    <path d="M25.11,35.273 L25.675,35.626 L26.935,36.185 L28.245,36.663 L29.565,37.077 L30.889,37.428 L32.215,37.72 L33.545,37.957 L34.876,38.14 L36.208,38.27 L37.543,38.353 L38.88,38.389 L40.22,38.382 L41.562,38.333 L42.904,38.242 L44.917,38.036 L47.604,37.639 L50.288,37.112 L52.958,36.47 L55.61,35.728 L58.233,34.898 L60.822,33.995 L63.368,33.031 L65.864,32.02 L68.301,30.976 L70.672,29.912 L72.969,28.842 L75.184,27.779 L77.308,26.738 L78.837,25.978 L79.824,25.485 L80.784,25.005 L81.716,24.54 L82.618,24.09 L83.49,23.659 L84.331,23.247 L85.139,22.857 L85.915,22.49 L86.655,22.147 L87.36,21.831 L88.029,21.543 L88.659,21.285 L89.25,21.059 L89.801,20.866 L90.309,20.708 L90.772,20.588 L91.186,20.507 L91.544,20.465 L91.832,20.464 L92.006,20.495 L91.946,20.505 L91.631,20.381 L91.421,20.255 L91.539,20.336 L91.586,20.395 L91.64,20.486 L91.722,20.646 L91.798,20.856 L91.852,21.104 L91.88,21.384 L91.88,21.691 L91.851,22.022 L91.794,22.375 L91.71,22.75 L91.599,23.144 L91.464,23.556 L91.304,23.985 L91.023,24.661 L90.576,25.612 L90.055,26.614 L89.472,27.663 L88.835,28.75 L88.155,29.869 L87.441,31.013 L86.331,32.762 L84.827,35.119 L83.726,36.879 L83.023,38.036 L82.358,39.171 L81.738,40.28 L81.176,41.355 L80.68,42.389 L80.261,43.378 L80.002,44.086 L79.859,44.542 L79.741,44.982 L79.649,45.406 L79.584,45.815 L79.548,46.208 L79.543,46.584 L79.57,46.945 L79.632,47.292 L79.732,47.625 L79.876,47.95 L80.076,48.273 L80.354,48.607 L80.751,48.97 L81.09,49.222 L81.09,49.222 C81.171,49.278 81.259,49.334 81.352,49.387 L81.352,49.387 L81.466,49.452 L82.351,49.833 L83.211,50.011 L83.733,49.991 L84.137,49.896 L84.51,49.75 L84.883,49.556 L85.261,49.316 L85.653,49.032 L86.061,48.704 L86.486,48.335 L86.929,47.925 L87.392,47.477 L87.874,46.992 L88.374,46.472 L88.892,45.917 L89.43,45.331 L89.984,44.713 L90.556,44.065 L91.141,43.388 L91.745,42.685 L92.365,41.958 L93.011,41.211 L93.691,40.453 L94.772,39.294 L96.311,37.711 L97.961,36.098 L99.708,34.461 L101.547,32.813 L103.466,31.161 L105.471,29.522 L107.036,28.313 L108.112,27.522 L109.213,26.743 L110.34,25.98 L111.493,25.234 L112.672,24.507 L113.878,23.801 L115.11,23.118 L116.368,22.459 L117.652,21.826 L118.963,21.222 L120.302,20.649 L121.667,20.107 L123.059,19.599 L124.479,19.127 L125.926,18.692 L127.4,18.297 L128.901,17.943 L130.43,17.632 L131.984,17.365 L133.565,17.144 L135.171,16.97 L136.796,16.84 L138.42,16.74 L140,16.636 L141.496,16.489 L142.259,16.435 L142.259,16.435 C142.328,16.439 142.333,16.399 142.272,16.347 C142.21,16.295 142.105,16.25 142.036,16.247 C142.036,16.247 142.036,16.247 142.036,16.247 L141.031,16.109 L139.036,15.879 L137.183,15.802 L135.433,15.84 L133.741,15.951 L132.088,16.119 L130.468,16.337 L128.879,16.603 L127.32,16.914 L125.79,17.269 L124.29,17.664 L122.818,18.099 L121.374,18.571 L119.958,19.079 L118.569,19.619 L117.208,20.192 L115.875,20.794 L114.567,21.424 L113.287,22.08 L112.034,22.76 L110.807,23.463 L109.605,24.186 L108.43,24.927 L107.281,25.686 L106.157,26.459 L105.058,27.246 L103.458,28.446 L101.416,30.076 L99.486,31.732 L97.672,33.402 L95.957,35.061 L94.335,36.695 L92.791,38.278 L91.679,39.423 L90.955,40.16 L90.241,40.873 L89.546,41.563 L88.88,42.234 L88.239,42.883 L87.63,43.509 L87.045,44.11 L86.488,44.684 L85.953,45.225 L85.444,45.736 L84.958,46.211 L84.494,46.649 L84.052,47.048 L83.634,47.405 L83.24,47.72 L82.87,47.988 L82.526,48.208 L82.216,48.379 L81.946,48.496 L81.747,48.561 L81.704,48.595 L82.037,48.713 L82.433,48.921 L82.316,48.856 L82.579,49.021 L82.647,49.084 L82.563,49.033 L82.436,48.903 L82.304,48.714 L82.188,48.479 L82.097,48.209 L82.034,47.907 L81.999,47.579 L81.994,47.227 L82.018,46.852 L82.069,46.457 L82.146,46.042 L82.25,45.609 L82.377,45.161 L82.61,44.458 L82.996,43.468 L83.458,42.428 L83.985,41.345 L84.568,40.226 L85.197,39.078 L85.863,37.907 L86.908,36.123 L88.338,33.729 L89.396,31.953 L90.075,30.789 L90.723,29.651 L91.33,28.544 L91.885,27.475 L92.38,26.451 L92.804,25.478 L93.07,24.786 L93.221,24.344 L93.348,23.917 L93.45,23.507 L93.527,23.115 L93.577,22.739 L93.598,22.382 L93.588,22.042 L93.545,21.718 L93.464,21.407 L93.338,21.105 L93.148,20.801 L92.859,20.479 L92.489,20.176 L92.369,20.096 L92.369,20.096 C92.304,20.052 92.234,20.009 92.16,19.97 L92.16,19.97 L91.625,19.728 L91.056,19.572 L90.628,19.526 L90.223,19.534 L89.801,19.585 L89.348,19.675 L88.859,19.803 L88.333,19.966 L87.769,20.163 L87.167,20.393 L86.528,20.653 L85.853,20.943 L85.142,21.26 L84.397,21.604 L83.618,21.972 L82.806,22.362 L81.963,22.774 L81.089,23.205 L80.184,23.654 L79.252,24.119 L78.291,24.598 L77.304,25.09 L75.774,25.848 L73.651,26.887 L71.44,27.947 L69.148,29.014 L66.783,30.075 L64.355,31.117 L61.871,32.125 L59.341,33.087 L56.771,33.989 L54.17,34.816 L51.55,35.558 L48.916,36.199 L46.278,36.727 L43.644,37.129 L41.677,37.339 L40.374,37.432 L39.08,37.487 L37.795,37.502 L36.521,37.475 L35.259,37.405 L34.012,37.29 L32.784,37.133 L31.575,36.929 L30.387,36.679 L29.221,36.381 L28.079,36.038 L26.957,35.645 L25.817,35.218 L25.194,35.033 C25.003,34.947 24.83,34.931 24.807,34.997 C24.784,35.063 24.92,35.187 25.11,35.273 L25.11,35.273" fill="#FFF049"/>
    <path d="M24.314,40.01 L24.879,40.361 L26.143,40.917 L27.457,41.384 L28.776,41.779 L30.095,42.104 L31.413,42.364 L32.73,42.561 L34.047,42.699 L35.361,42.78 L36.675,42.807 L37.99,42.784 L39.306,42.712 L40.623,42.595 L41.938,42.432 L43.254,42.227 L44.569,41.982 L46.536,41.544 L49.152,40.838 L51.752,40.005 L54.331,39.062 L56.879,38.024 L59.39,36.906 L61.858,35.723 L64.273,34.491 L66.631,33.225 L68.923,31.941 L71.141,30.652 L73.279,29.375 L75.328,28.125 L76.803,27.215 L77.755,26.624 L78.681,26.048 L79.579,25.49 L80.45,24.951 L81.291,24.433 L82.102,23.939 L82.882,23.469 L83.63,23.025 L84.345,22.611 L85.027,22.227 L85.673,21.876 L86.283,21.56 L86.856,21.28 L87.39,21.039 L87.884,20.838 L88.335,20.681 L88.741,20.568 L89.094,20.502 L89.381,20.484 L89.561,20.507 L89.498,20.519 L89.149,20.386 L88.93,20.255 L89.048,20.335 L89.097,20.396 L89.152,20.488 L89.235,20.648 L89.311,20.858 L89.366,21.107 L89.394,21.387 L89.394,21.694 L89.365,22.025 L89.308,22.379 L89.224,22.753 L89.113,23.147 L88.978,23.559 L88.818,23.989 L88.537,24.664 L88.09,25.616 L87.57,26.619 L86.986,27.667 L86.35,28.754 L85.67,29.873 L84.957,31.017 L83.846,32.766 L82.343,35.124 L81.242,36.884 L80.54,38.041 L79.874,39.176 L79.255,40.285 L78.693,41.36 L78.197,42.394 L77.778,43.383 L77.519,44.091 L77.376,44.547 L77.258,44.986 L77.166,45.411 L77.101,45.82 L77.065,46.212 L77.06,46.589 L77.087,46.95 L77.149,47.296 L77.249,47.629 L77.393,47.953 L77.593,48.276 L77.87,48.609 L78.265,48.971 L78.602,49.221 L78.602,49.221 C78.686,49.279 78.778,49.336 78.874,49.391 L78.874,49.391 L78.988,49.456 L79.911,49.843 L80.762,49.995 L81.261,49.953 L81.65,49.837 L82.014,49.668 L82.38,49.449 L82.755,49.181 L83.144,48.865 L83.546,48.5 L83.965,48.091 L84.402,47.638 L84.856,47.143 L85.329,46.609 L85.823,46.037 L86.334,45.428 L86.862,44.784 L87.41,44.107 L87.972,43.398 L88.552,42.659 L89.144,41.889 L89.755,41.095 L90.383,40.276 L91.043,39.442 L91.74,38.598 L92.469,37.743 L93.614,36.439 L95.236,34.672 L96.96,32.882 L98.775,31.08 L100.67,29.274 L102.65,27.482 L104.197,26.162 L105.26,25.297 L106.35,24.446 L107.465,23.612 L108.607,22.796 L109.775,22 L110.969,21.228 L112.191,20.48 L113.439,19.759 L114.713,19.066 L116.015,18.405 L117.345,17.776 L118.702,17.181 L120.086,16.623 L121.498,16.105 L122.938,15.626 L124.405,15.191 L125.901,14.8 L127.423,14.455 L128.973,14.158 L130.549,13.911 L132.15,13.715 L133.771,13.567 L135.396,13.457 L136.967,13.339 L138.461,13.188 L139.225,13.135 L139.225,13.135 C139.293,13.138 139.298,13.099 139.237,13.047 C139.175,12.995 139.07,12.95 139.001,12.947 C139.001,12.947 139.001,12.947 139.001,12.947 L137.997,12.81 L136.001,12.585 L134.142,12.514 L132.397,12.569 L130.707,12.698 L129.058,12.889 L127.441,13.133 L125.856,13.43 L124.303,13.775 L122.78,14.167 L121.286,14.604 L119.821,15.083 L118.385,15.603 L116.977,16.16 L115.597,16.754 L114.246,17.383 L112.922,18.043 L111.625,18.733 L110.355,19.452 L109.112,20.197 L107.896,20.966 L106.706,21.757 L105.542,22.569 L104.405,23.399 L103.293,24.245 L102.206,25.105 L100.624,26.418 L98.607,28.2 L96.704,30.011 L94.916,31.835 L93.229,33.65 L91.629,35.434 L90.48,36.738 L89.738,37.588 L89.008,38.417 L88.287,39.222 L87.578,40.001 L86.897,40.761 L86.241,41.498 L85.616,42.214 L85.017,42.904 L84.446,43.567 L83.898,44.199 L83.375,44.798 L82.876,45.362 L82.398,45.888 L81.941,46.373 L81.508,46.817 L81.097,47.216 L80.709,47.568 L80.347,47.873 L80.009,48.125 L79.701,48.323 L79.429,48.462 L79.221,48.543 L79.159,48.581 L79.487,48.693 L79.922,48.916 L79.806,48.851 L80.078,49.021 L80.145,49.084 L80.059,49.031 L79.931,48.9 L79.799,48.71 L79.683,48.475 L79.592,48.204 L79.528,47.903 L79.494,47.574 L79.489,47.222 L79.512,46.847 L79.564,46.452 L79.641,46.037 L79.744,45.605 L79.871,45.156 L80.105,44.452 L80.491,43.463 L80.953,42.423 L81.48,41.34 L82.063,40.221 L82.693,39.073 L83.358,37.902 L84.404,36.118 L85.835,33.725 L86.892,31.948 L87.572,30.785 L88.22,29.647 L88.827,28.54 L89.383,27.471 L89.878,26.447 L90.302,25.474 L90.568,24.782 L90.718,24.34 L90.846,23.914 L90.948,23.504 L91.025,23.111 L91.075,22.736 L91.096,22.379 L91.087,22.039 L91.044,21.715 L90.963,21.405 L90.837,21.103 L90.647,20.8 L90.359,20.478 L89.992,20.177 L89.872,20.096 L89.872,20.096 C89.805,20.05 89.731,20.006 89.653,19.964 L89.653,19.964 L89.085,19.716 L88.518,19.575 L88.106,19.548 L87.715,19.579 L87.306,19.658 L86.867,19.781 L86.394,19.947 L85.884,20.153 L85.339,20.399 L84.757,20.682 L84.14,21.001 L83.488,21.354 L82.802,21.739 L82.082,22.155 L81.331,22.599 L80.548,23.069 L79.734,23.564 L78.891,24.081 L78.019,24.62 L77.119,25.177 L76.193,25.752 L75.241,26.342 L73.766,27.251 L71.717,28.498 L69.582,29.772 L67.367,31.058 L65.082,32.34 L62.733,33.603 L60.327,34.832 L57.875,36.013 L55.381,37.128 L52.854,38.164 L50.304,39.106 L47.737,39.937 L45.16,40.644 L43.226,41.083 L41.941,41.329 L40.658,41.535 L39.38,41.699 L38.109,41.821 L36.845,41.898 L35.591,41.928 L34.347,41.911 L33.117,41.843 L31.905,41.727 L30.711,41.56 L29.537,41.341 L28.385,41.069 L27.257,40.747 L26.148,40.37 L25.017,39.954 L24.395,39.769 C24.395,39.769 24.395,39.769 24.395,39.769 C24.205,39.683 24.032,39.667 24.01,39.734 C23.987,39.8 24.123,39.924 24.314,40.01 L24.314,40.01" fill="#40C040"/>
  </g>
</svg>
